<svg width="102" height="24" viewBox="0 0 102 24" fill="none" xmlns="http://www.w3.org/2000/svg">
<g clip-path="url(#clip0_32_6416)">
<path fill-rule="evenodd" clip-rule="evenodd" d="M27.2692 10.3139C27.3159 10.3201 27.3617 10.3272 27.4076 10.3351C27.3137 10.3334 27.2943 10.3713 27.2692 10.3139ZM27.4168 10.3369C27.642 10.3784 27.8579 10.4459 28.061 10.5363C28.0522 10.539 28.0425 10.5425 28.0319 10.5469C27.9865 10.6735 28.0376 10.7291 27.987 10.8531C27.8332 10.8822 27.9522 10.7962 27.7446 10.794C27.5732 10.7918 27.5093 10.708 27.4406 10.5994C27.393 10.524 27.2789 10.5173 27.3269 10.404C27.3564 10.3342 27.3503 10.3766 27.4164 10.3373L27.4168 10.3369ZM29.2586 11.5299C29.2722 11.5498 29.2855 11.5692 29.2987 11.5895C29.2762 11.5705 29.2555 11.5529 29.2458 11.5339C29.2502 11.5321 29.2546 11.5313 29.2586 11.5299ZM29.3841 11.728C29.4234 11.7956 29.4595 11.8653 29.493 11.9359C29.4912 11.9389 29.489 11.9425 29.4868 11.946C29.4256 12.0563 29.4996 12.1053 29.3132 12.1079L29.1722 12.0735C29.1564 11.95 29.1348 11.8909 29.1427 11.7686C29.1484 11.6822 29.3172 11.7898 29.3753 11.7589C29.3802 11.7479 29.3828 11.7373 29.3841 11.7272V11.728ZM29.582 12.1454C29.7023 12.4627 29.7679 12.8064 29.7679 13.1655C29.7679 13.3217 29.7551 13.4753 29.7314 13.6244C29.6948 13.6147 29.6335 13.6195 29.5318 13.642C29.2515 13.7034 29.2912 13.6716 29.1282 13.5445C29.0273 13.466 28.9294 13.3358 28.9197 13.2097C28.9127 13.1183 28.9153 13.2666 28.918 13.1805C28.9202 13.1121 28.9497 13.1395 28.9537 13.0521C28.9625 12.8607 28.7787 12.9357 29.0167 12.6396L29.1709 12.4216C29.2079 12.3131 29.1687 12.3382 29.259 12.2257C29.2894 12.1878 29.274 12.1966 29.2995 12.1525C29.4216 12.1944 29.3824 12.2094 29.4983 12.1644C29.5273 12.1534 29.5551 12.1468 29.582 12.145V12.1454ZM27.0872 16.0348C27.0238 16.0387 26.9603 16.0414 26.896 16.0414C26.7294 16.0414 26.5664 16.0268 26.4078 15.9999C26.4082 15.9421 26.4298 15.9408 26.4426 15.8803C26.4607 15.7983 26.4334 15.7996 26.4554 15.7069C26.4876 15.5728 26.4972 15.6536 26.4972 15.4563C26.4972 15.305 26.443 15.309 26.3377 15.2498C26.0743 15.1016 26.1205 14.9688 26.013 14.862C25.9839 14.8329 25.9998 14.8523 25.9716 14.828C25.9672 14.8245 25.9548 14.8148 25.9509 14.8108C25.9007 14.7583 25.8848 14.7041 25.9628 14.6718C25.9606 14.667 25.8738 14.5902 25.9725 14.4707C26.0359 14.3934 26.0698 14.4089 26.0712 14.2743C26.0725 14.1437 26.1192 14.0343 26.2108 13.9769C26.2853 13.9306 26.2725 13.9805 26.28 13.8988C26.1835 13.8313 26.1945 13.8891 26.1721 13.95C25.7755 13.8437 25.9496 13.6703 25.672 13.6085C25.5006 13.5706 25.5883 13.5728 25.4944 13.4876C25.3847 13.4686 25.4266 13.5163 25.3252 13.4691C25.2834 13.4497 25.2477 13.421 25.1899 13.3972C25.0309 13.331 25.0269 13.3566 24.9798 13.1938C24.93 13.0221 24.893 13.0596 24.8273 12.9533C24.759 12.843 24.7639 12.8871 24.7136 12.7671C24.7053 12.7477 24.7053 12.7437 24.696 12.7265C24.6806 12.6983 24.6854 12.7053 24.67 12.6881L24.6572 12.7208C24.6365 12.8355 24.7 12.8571 24.7313 12.899C24.7559 12.9326 24.8026 13.0795 24.8282 13.1311C24.7106 13.083 24.7753 13.0561 24.6863 12.9436C24.6101 12.847 24.5607 12.6365 24.5453 12.6158C24.4731 12.5196 24.4687 12.6484 24.4334 12.4653C24.392 12.2496 24.3594 12.2513 24.4264 12.0223C24.4625 11.8992 24.4343 11.8229 24.3982 11.7448C24.6418 11.3164 24.9921 10.9572 25.4129 10.7027C25.5085 10.6868 25.579 10.6877 25.6914 10.6916L25.813 10.5447C25.9346 10.5491 25.8394 10.5893 25.9628 10.5398C26.0002 10.5954 25.9337 10.5999 26.0148 10.606C26.1011 10.6127 26.05 10.5857 26.0875 10.55C26.1637 10.4781 26.2166 10.5363 26.2417 10.5959C26.1377 10.666 26.1386 10.6404 26.0284 10.6616C25.9606 10.726 26.0117 10.7419 25.9333 10.7922C25.8707 10.8324 25.8125 10.8152 25.7548 10.8566C25.6658 10.9206 25.6156 11.1037 25.7209 11.177C25.8376 11.2582 26.013 11.1986 26.0884 11.2374C26.2448 11.3177 26.0892 11.5083 26.2866 11.4876L26.3016 11.2723C26.4893 11.1576 26.4404 11.1801 26.3518 11.0464C26.4184 10.91 26.358 10.9268 26.3937 10.8341C26.4735 10.8394 26.5915 10.8311 26.6528 10.8624C26.7325 10.9034 26.7506 10.9564 26.7863 11.0243C26.9762 11.0627 26.8876 11.0045 27.0119 10.9652C27.0749 11.0172 27.1035 11.0949 27.1335 11.1637C27.3044 11.1717 27.4375 11.1028 27.4375 11.3274C27.4375 11.417 27.4128 11.4443 27.3349 11.4677C27.2644 11.4889 27.2128 11.5216 27.1441 11.5207C27.0264 11.5189 27.0458 11.4876 26.918 11.5352C26.8978 11.5427 26.8546 11.5591 26.84 11.5666C26.7744 11.6005 26.796 11.5877 26.7647 11.6358C26.8462 11.6045 26.9057 11.5639 27.0026 11.5997C27 11.6539 27.0176 11.6385 26.9493 11.6583C27.0749 11.8017 26.9603 11.7236 27.1551 11.7964C27.1295 11.8635 27.1128 11.8189 27.0326 11.8556C26.9881 11.8759 26.911 11.9729 26.9304 11.8763C26.9405 11.8278 26.9647 11.8551 27.0053 11.8039C26.9127 11.8039 26.7149 11.8776 26.6638 11.9544C26.6048 12.0431 26.592 12.0281 26.5325 12.0854L26.4153 12.2302C26.3488 12.366 26.3902 12.438 26.2285 12.5505C26.0002 12.7093 26.2271 12.7786 26.1681 12.9935C26.0333 12.9339 26.0892 12.8545 26.0205 12.7534C26.002 12.7451 25.8196 12.7115 25.7975 12.715C25.7174 12.7278 25.7301 12.7618 25.5883 12.7724C25.175 12.8042 25.2433 13.4554 25.5878 13.3575C25.661 13.3367 25.6266 13.3504 25.6491 13.2825C25.6781 13.1947 25.6812 13.1872 25.8324 13.1964C25.8147 13.2445 25.6781 13.4563 25.8046 13.4894L25.9883 13.5198C26.0328 13.6376 25.9734 13.7082 26.0271 13.796C26.0994 13.9138 26.173 13.8057 26.288 13.8521C26.3466 13.9116 26.3351 14.0012 26.3593 14.0638C26.4171 14.0413 26.3448 14.0974 26.3818 14.0369C26.4532 13.92 26.4232 13.9558 26.6435 14.0065C26.7409 14.029 26.8074 14.0083 26.8806 14.0669C26.9427 14.1164 26.8691 14.078 26.9572 14.1208C27.0564 14.1689 27.0233 14.1728 27.0863 14.2192C27.1621 14.2748 27.1784 14.2359 27.2635 14.2487C27.3798 14.2664 27.4688 14.3979 27.4582 14.5179C27.6702 14.521 27.6666 14.5682 27.8222 14.6268L28.0883 14.7177C28.0954 14.7208 28.1293 14.7336 28.1302 14.7341C28.1346 14.7363 28.1394 14.7385 28.1434 14.7407C28.1473 14.7429 28.1522 14.7464 28.1557 14.7486C28.272 14.8223 28.113 14.9679 28.0764 15.0014C27.9861 15.0848 28.0266 15.162 27.9636 15.2829L27.8169 15.5102C27.8085 15.5146 27.5397 15.586 27.5089 15.5971C27.4816 15.7409 27.5137 15.6778 27.415 15.7661C27.3556 15.8195 27.3485 15.8499 27.282 15.8958C27.226 15.9342 27.1595 15.9461 27.115 15.9906C27.0806 16.0255 27.1049 16.0273 27.0868 16.0352L27.0872 16.0348ZM25.9588 10.4463C26.0042 10.4304 26.05 10.4159 26.0967 10.4026L26.1099 10.4265L26.1271 10.3942C26.1862 10.3779 26.2461 10.3634 26.3069 10.3506C26.3131 10.3607 26.3254 10.3647 26.3787 10.3563C26.4074 10.3519 26.4457 10.3329 26.4959 10.3175C26.5074 10.3157 26.5188 10.3139 26.5303 10.3126C26.5924 10.3598 26.5188 10.3047 26.5633 10.3651C26.7951 10.3567 26.6924 10.4185 26.8625 10.4128C26.8422 10.4534 26.8418 10.4432 26.8295 10.4984L27.1251 10.5954C27.0943 10.6444 27.0401 10.6749 26.981 10.6466C26.9317 10.6228 26.9282 10.5915 26.8647 10.6144C26.8273 10.6281 26.8524 10.6219 26.8356 10.6329C26.9141 10.6982 26.9713 10.693 27.004 10.7644C26.9114 10.82 26.8912 10.73 26.8136 10.7644C26.837 10.7785 26.8691 10.7874 26.8845 10.7988C26.9392 10.839 26.9088 10.7763 26.922 10.8531C26.8757 10.8381 26.8264 10.8271 26.7806 10.8134L26.6634 10.7587C26.529 10.655 26.5589 10.73 26.4488 10.7287C26.377 10.7274 26.4104 10.7256 26.3871 10.7084C26.4523 10.6652 26.473 10.681 26.5633 10.6691L26.577 10.6334C26.6325 10.5381 26.614 10.6457 26.6479 10.5301C26.5686 10.4988 26.41 10.4106 26.3373 10.4287C26.0262 10.5054 26.1774 10.449 25.9606 10.4834C25.9606 10.4693 25.9597 10.4573 25.9588 10.4468V10.4463Z" fill="#666666"/>
<path d="M29.686 23.0752C29.1691 23.6642 28.421 24 27.638 24H12.3465C11.5609 24 10.8127 23.6607 10.2945 23.0699C9.77506 22.4782 9.53624 21.6902 9.63715 20.911L9.67239 20.6405L9.77241 19.8693L9.86098 19.1863H11.723L11.7036 19.3412L11.6349 19.8693L11.5349 20.6405L11.4688 21.1506C11.3987 21.6809 11.8129 22.1517 12.3469 22.1517H27.6384C28.1738 22.1517 28.584 21.6849 28.5175 21.1541L28.1346 18.0709C28.7858 17.9085 29.3784 17.6244 29.8931 17.2489L29.9279 17.5295L30.35 20.9251C30.4465 21.7043 30.2046 22.487 29.6864 23.0752H29.686ZM26.8797 8.06718L26.6929 6.65088C26.6343 6.2101 26.2589 5.87963 25.8147 5.87963H23.9113C23.8417 5.49445 23.7474 5.11059 23.6421 4.73908C23.5747 4.50171 23.5011 4.26566 23.4213 4.03137H25.8147C27.1798 4.03137 28.3447 5.05235 28.5214 6.40733L28.8025 8.46295C28.2447 8.26308 27.4679 8.06321 26.8801 8.06674L26.8797 8.06718ZM23.012 5.87963H16.9681C17.0271 5.53504 17.1047 5.19221 17.1919 4.85865C17.2642 4.58201 17.3452 4.30537 17.4351 4.03137H22.478C22.5811 4.30713 22.6749 4.58642 22.7586 4.86615C22.8573 5.19574 22.9455 5.53636 23.0124 5.87919L23.012 5.87963ZM16.0666 5.87963H14.1711C13.723 5.87963 13.3476 6.21275 13.2929 6.65485L13.2008 7.3908L13.1035 8.16205L13.0501 8.58517H11.1885L11.189 8.58208L11.2423 8.16205L11.3384 7.3908L11.4604 6.42586C11.6331 5.06029 12.7968 4.03137 14.1711 4.03137H16.501C16.4288 4.26831 16.3627 4.50656 16.3023 4.74526C16.2085 5.11632 16.1265 5.49709 16.0666 5.87919V5.87963Z" fill="#666666"/>
<path d="M24.2232 7.04628C24.2232 7.39617 23.939 7.68031 23.5892 7.68031C23.2407 7.68031 22.9565 7.39661 22.9565 7.04628C22.9565 6.797 23.1063 6.56845 23.3332 6.46785C23.2763 5.96442 23.1508 5.38907 22.9754 4.80137C22.7921 4.18896 22.5542 3.56199 22.2832 2.98576C22.2255 2.86443 22.1669 2.74574 22.107 2.62926C21.376 1.2156 20.5802 0.437293 19.8656 0.437293C18.8222 0.437293 17.9965 2.01244 17.5964 2.95179C17.5915 2.96326 17.5867 2.97429 17.5823 2.98576C17.3448 3.54964 17.1346 4.18102 16.9725 4.80137C16.8183 5.39084 16.7081 5.97016 16.6592 6.47005C16.8844 6.5733 17.0284 6.79611 17.0284 7.04628C17.0284 7.39617 16.7442 7.68031 16.3957 7.68031C16.0463 7.68031 15.7621 7.39661 15.7621 7.04628C15.7621 6.75993 15.9507 6.51329 16.2243 6.4374C16.2719 5.94456 16.3768 5.37937 16.5226 4.80181C16.6782 4.18631 16.8804 3.55626 17.1104 2.9862C17.1386 2.91693 17.1664 2.84899 17.1954 2.78192C17.9577 0.987491 18.9063 0.000488281 19.8656 0.000488281C21.0358 0.000488281 22.0594 1.38723 22.7696 2.98665C23.034 3.58273 23.2552 4.20837 23.424 4.80225C23.5936 5.39966 23.7108 5.96618 23.7659 6.43873C24.0373 6.51726 24.2232 6.76302 24.2232 7.04673V7.04628Z" fill="#666666"/>
<path fill-rule="evenodd" clip-rule="evenodd" d="M4.19203 13.0918H15.8436V13.8079H20.0356V14.224H15.8436V14.9401H4.19203V14.224H3.05176e-05V13.8079H4.19203V13.0918Z" fill="#666666"/>
<path fill-rule="evenodd" clip-rule="evenodd" d="M6.83836 8.8125H16.4252V9.5286H19.8744V9.94466H16.4252V10.6608H6.83836V9.94466H3.38879V9.5286H6.83836V8.8125Z" fill="#666666"/>
<path fill-rule="evenodd" clip-rule="evenodd" d="M5.91352 17.1108H16.1261V17.8269H19.8004V18.2434H16.1261V18.9595H5.91352V18.2434H2.2388V17.8269H5.91352V17.1108Z" fill="#666666"/>
<path d="M31.7031 15.2268C31.7031 15.2268 31.4841 15.9028 30.969 16.4304L32.5116 17.4483C32.5116 17.4483 33.2681 17.2714 33.3215 16.257L31.7031 15.2268Z" fill="#666666"/>
<path d="M32.5605 17.1797L31.2404 16.3586L31.288 16.2814L32.6086 17.1025L32.5605 17.1797Z" fill="#666666"/>
<path fill-rule="evenodd" clip-rule="evenodd" d="M26.896 8.37476C29.5383 8.37476 31.6806 10.52 31.6806 13.1659C31.6806 15.8119 29.5383 17.9571 26.896 17.9571C24.2536 17.9571 22.1114 15.8119 22.1114 13.1659C22.1114 10.52 24.2536 8.37476 26.896 8.37476ZM26.896 9.69091C28.8127 9.69091 30.3663 11.2466 30.3663 13.1659C30.3663 15.0852 28.8127 16.641 26.896 16.641C24.9793 16.641 23.4257 15.0852 23.4257 13.1659C23.4257 11.2466 24.9793 9.69091 26.896 9.69091Z" fill="#666666"/>
<path d="M36.2837 18.0466V8.81897H40.2065C40.8384 8.81897 41.4354 8.93986 41.9967 9.18121C42.5585 9.423 43.0476 9.75258 43.4649 10.17C43.8817 10.5874 44.2108 11.0771 44.4523 11.6397C44.6937 12.2022 44.8145 12.7996 44.8145 13.4323C44.8145 14.0739 44.6937 14.6735 44.4523 15.2316C44.2108 15.7898 43.8817 16.2773 43.4649 16.6947C43.048 17.1121 42.5585 17.4417 41.9967 17.6835C41.4349 17.9252 40.8384 18.0457 40.2065 18.0457H36.2837V18.0466ZM40.2986 16.2142C40.641 16.2142 40.9657 16.133 41.2728 15.9702C41.5799 15.8078 41.8522 15.5965 42.0893 15.3375C42.3263 15.0781 42.5149 14.7816 42.6554 14.4476C42.796 14.1136 42.8661 13.7752 42.8661 13.4328C42.8661 13.09 42.796 12.7515 42.6554 12.4175C42.5149 12.0835 42.3263 11.7848 42.0893 11.521C41.8522 11.2571 41.5803 11.0445 41.2728 10.8817C40.9657 10.7193 40.641 10.6377 40.2986 10.6377H38.3766V16.2138H40.2986V16.2142Z" fill="#666666"/>
<path d="M46.973 18.1653C46.4289 18.1653 45.9878 18.0047 45.6499 17.6844C45.3119 17.3636 45.1432 16.922 45.1432 16.3594C45.152 15.9464 45.2661 15.608 45.4855 15.3442C45.7049 15.0808 45.9768 14.8716 46.3015 14.7181C46.6263 14.5641 46.9774 14.4564 47.3546 14.3951C47.7322 14.3338 48.0873 14.3029 48.4209 14.3029C48.702 14.3029 48.9628 14.3139 49.2043 14.3355C49.4458 14.3576 49.6454 14.3819 49.8031 14.4079V13.9331C49.8031 13.4672 49.6674 13.1204 49.3951 12.8919C49.1228 12.6633 48.7544 12.5491 48.2891 12.5491C48.0521 12.5491 47.8172 12.5795 47.585 12.6413C47.3524 12.7026 47.1264 12.7886 46.9069 12.8985C46.6875 13.0084 46.4857 13.1359 46.3015 13.2806C46.1174 13.4253 45.9504 13.5815 45.8014 13.7487L45.6697 12.4833C45.7926 12.3602 45.9482 12.2327 46.1372 12.1008C46.3258 11.9693 46.5386 11.8506 46.7756 11.7447C47.0127 11.6393 47.2669 11.5515 47.5392 11.4813C47.8115 11.4107 48.0922 11.3759 48.3817 11.3759C49.3911 11.3759 50.1829 11.5757 50.7579 11.9759C51.3329 12.3757 51.6202 12.9978 51.6202 13.8414V18.0466H50.3301L49.8427 16.3859C49.6233 17.0009 49.2594 17.4514 48.75 17.7369C48.2411 18.0228 47.6485 18.1653 46.973 18.1653ZM47.934 15.0146C47.7234 15.0671 47.5502 15.1421 47.4141 15.2387C47.2784 15.3353 47.1748 15.4452 47.1048 15.5683C47.0343 15.6914 46.9906 15.8207 46.973 15.957C46.9554 16.0933 46.9598 16.2231 46.9862 16.3462C47.0299 16.5571 47.1352 16.7238 47.3022 16.8469C47.4687 16.97 47.6621 17.0318 47.8811 17.0318C48.2583 17.0318 48.6249 16.9242 48.9805 16.7088C49.336 16.4935 49.6013 16.2147 49.7767 15.8719V15.0808C49.6802 15.0543 49.5264 15.0256 49.3158 14.9952C49.1052 14.9643 48.8769 14.9488 48.6311 14.9488C48.5081 14.9488 48.3874 14.9532 48.2689 14.9621C48.1503 14.9709 48.0384 14.9885 47.9331 15.015L47.934 15.0146Z" fill="#666666"/>
<path d="M51.9758 13.0639V11.5744H54.5824V18.0466H52.6869V13.0639H51.9762H51.9758ZM52.2128 9.70229C52.2128 9.54389 52.2432 9.39697 52.3049 9.26063C52.3662 9.12473 52.4477 9.00605 52.5486 8.90457C52.6495 8.80353 52.768 8.72234 52.9041 8.66057C53.0403 8.59924 53.187 8.56836 53.3452 8.56836C53.5034 8.56836 53.6523 8.59924 53.7929 8.66057C53.9334 8.7219 54.0537 8.80353 54.1546 8.90457C54.2555 9.00561 54.3366 9.12429 54.3983 9.26063C54.46 9.39697 54.4904 9.54389 54.4904 9.70229C54.4904 10.0186 54.3784 10.2887 54.1546 10.5128C53.9308 10.7369 53.6611 10.849 53.3452 10.849C53.187 10.849 53.0403 10.8181 52.9041 10.7568C52.768 10.6955 52.6495 10.6138 52.5486 10.5128C52.4477 10.4118 52.3666 10.2909 52.3049 10.1501C52.2437 10.0094 52.2128 9.86024 52.2128 9.70185V9.70229Z" fill="#666666"/>
<path d="M55.1878 8.27893H57.0834V18.0466H55.1878V8.27893Z" fill="#666666"/>
<path d="M59.045 20.6437C58.7379 20.6172 58.4484 20.5448 58.1761 20.4261C57.9038 20.3074 57.6606 20.1513 57.4456 19.9584C57.2305 19.7652 57.0552 19.5388 56.919 19.2794C56.7829 19.02 56.6974 18.7455 56.6621 18.4557H57.3601C57.4037 18.6048 57.472 18.7477 57.5641 18.8841C57.6562 19.0204 57.7681 19.1457 57.8998 19.26C58.0316 19.3743 58.1849 19.4643 58.3607 19.5305C58.5361 19.5962 58.7295 19.6293 58.9401 19.6293C59.1684 19.6293 59.379 19.5852 59.572 19.4974C59.7649 19.4096 59.9381 19.2931 60.0919 19.1484C60.2457 19.0032 60.3774 18.8364 60.4867 18.6471C60.5964 18.4583 60.6775 18.2584 60.7303 18.0475H59.572L57.2288 11.5753H59.1243L60.8489 16.7689H61.1383L62.9021 11.5753H64.7981L62.402 17.995C62.2615 18.3727 62.0861 18.7244 61.8755 19.0495C61.6649 19.3747 61.4212 19.6558 61.1449 19.8931C60.8687 20.1305 60.555 20.3149 60.2038 20.4469C59.8526 20.5788 59.4666 20.6445 59.0454 20.6445L59.045 20.6437Z" fill="#666666"/>
<path d="M66.6539 11.5744L65.6405 9.68909H67.1809L67.0492 11.5744H69.9718V12.4313H67.0624V15.9248C67.0624 16.4962 67.1937 16.8937 67.4572 17.1179C67.7202 17.342 68.0498 17.4541 68.4446 17.4541C68.6817 17.4541 68.9293 17.4232 69.1884 17.3619C69.4474 17.3005 69.7083 17.2211 69.9718 17.1245V18.0475C69.6911 18.1004 69.4122 18.1441 69.1359 18.1794C68.8597 18.2143 68.594 18.2319 68.3393 18.2319C68.0058 18.2319 67.6964 18.1944 67.4114 18.1199C67.1263 18.0453 66.8804 17.9178 66.6742 17.7373C66.468 17.5573 66.3054 17.3133 66.1869 17.0058C66.0684 16.6983 66.0093 16.3113 66.0093 15.8458V12.4317H64.877L65.1968 11.5748H66.6548L66.6539 11.5744Z" fill="#666666"/>
<path d="M70.656 11.5744H71.1958L71.4853 14.013H71.6038C71.665 13.4593 71.7858 13.0088 71.9655 12.662C72.1453 12.3148 72.3541 12.0465 72.5908 11.8577C72.8278 11.6688 73.0803 11.5391 73.3477 11.469C73.6156 11.3988 73.8721 11.3635 74.1179 11.3635C74.1884 11.3635 74.2585 11.3635 74.3285 11.3635C74.399 11.3635 74.4647 11.3679 74.5259 11.3768V12.4052C74.4823 12.3964 74.4228 12.3898 74.3484 12.3854C74.2739 12.381 74.1924 12.3788 74.1047 12.3788C73.8853 12.3788 73.6394 12.4052 73.3676 12.4577C73.0957 12.5107 72.8366 12.6161 72.5908 12.7741C72.3453 12.9325 72.1387 13.1566 71.9721 13.4465C71.8051 13.7364 71.7219 14.1145 71.7219 14.5804V18.0475H70.6556V11.5753L70.656 11.5744Z" fill="#666666"/>
<path d="M74.3026 16.3594C74.3026 16.043 74.3704 15.7571 74.5066 15.5025C74.6427 15.2475 74.8291 15.0278 75.0661 14.8433C75.3032 14.6589 75.5839 14.5137 75.9086 14.4083C76.2333 14.3028 76.5801 14.2371 76.9484 14.2106C77.0626 14.2018 77.1767 14.1952 77.2908 14.1908C77.4049 14.1864 77.5234 14.1842 77.6464 14.1842C77.9711 14.1842 78.2804 14.2014 78.5743 14.2367C78.8682 14.272 79.103 14.3289 79.2784 14.4078V13.9331C79.2784 13.2739 79.1246 12.8168 78.8175 12.5622C78.5104 12.3072 78.0672 12.1797 77.4882 12.1797C76.9969 12.1797 76.5294 12.2896 76.0862 12.5093C75.6429 12.729 75.2723 13.0101 74.974 13.3529L74.8291 12.4828C75.1626 12.1753 75.5508 11.9137 75.9941 11.6983C76.4373 11.483 76.9352 11.3754 77.4882 11.3754C77.9182 11.3754 78.3091 11.4239 78.6598 11.5205C79.011 11.6172 79.3093 11.7667 79.5551 11.9688C79.8005 12.1709 79.9918 12.4281 80.1279 12.7401C80.2641 13.052 80.3319 13.4191 80.3319 13.8409V18.0461H79.7657L79.3445 16.0161C79.0815 16.7631 78.684 17.308 78.1531 17.6508C77.6221 17.9936 77.0405 18.1648 76.4087 18.1648C76.1104 18.1648 75.8359 18.1273 75.5861 18.0527C75.3358 17.9782 75.1164 17.8661 74.9278 17.7165C74.7392 17.5674 74.5898 17.3781 74.4801 17.15C74.3704 16.9215 74.3114 16.6581 74.3026 16.3589V16.3594ZM76.9092 14.6717C76.6021 14.7246 76.343 14.8124 76.1324 14.9355C75.9218 15.0586 75.757 15.199 75.6389 15.3573C75.5204 15.5157 75.4415 15.6847 75.4019 15.8647C75.3622 16.0448 75.36 16.227 75.3953 16.4119C75.4482 16.7017 75.5993 16.9413 75.8495 17.1306C76.0998 17.3194 76.4268 17.4139 76.8304 17.4139C77.1375 17.4139 77.4203 17.3609 77.6794 17.2555C77.9385 17.15 78.1685 17.0181 78.3703 16.8601C78.5721 16.7017 78.7475 16.5239 78.8968 16.3263C79.0462 16.1286 79.1647 15.9375 79.2524 15.7527L79.2656 14.7904C79.1074 14.7291 78.8924 14.6805 78.6206 14.6457C78.3487 14.6104 78.072 14.5927 77.7913 14.5927C77.4578 14.5927 77.1639 14.6192 76.9092 14.6717Z" fill="#666666"/>
<path d="M84.123 18.2447C83.737 18.2447 83.3528 18.1874 82.9712 18.0731C82.5892 17.9588 82.2473 17.7678 81.9446 17.4995C81.6419 17.2317 81.396 16.8778 81.2074 16.4384C81.0189 15.9989 80.9246 15.454 80.9246 14.8037C80.9246 14.1533 81.0189 13.6106 81.2074 13.1756C81.396 12.7405 81.6419 12.3889 81.9446 12.1211C82.2473 11.8533 82.5896 11.6618 82.9712 11.5475C83.3528 11.4332 83.737 11.3759 84.123 11.3759C84.7724 11.3759 85.3122 11.5625 85.7422 11.9362C86.1723 12.3099 86.4706 12.8173 86.6376 13.4588H86.7693V8.27808H87.8224V18.0462H87.1641L86.835 15.6076H86.7037C86.6508 15.9853 86.5499 16.3347 86.401 16.6555C86.252 16.9762 86.0652 17.2551 85.8414 17.4925C85.6175 17.7298 85.3611 17.9143 85.0712 18.0462C84.7817 18.1781 84.4658 18.2438 84.1234 18.2438L84.123 18.2447ZM84.2151 11.9962C83.8463 11.9962 83.5215 12.0686 83.2409 12.2137C82.9602 12.3585 82.7276 12.5566 82.5434 12.8072C82.3592 13.0578 82.2208 13.3543 82.1288 13.6971C82.0367 14.0399 81.9904 14.4088 81.9904 14.8046C81.9904 15.1999 82.0367 15.5714 82.1288 15.9186C82.2208 16.2659 82.3592 16.5646 82.5434 16.8152C82.7276 17.0654 82.9602 17.2635 83.2409 17.4082C83.522 17.5533 83.8467 17.6257 84.2151 17.6257C84.6451 17.6257 85.0113 17.5401 85.314 17.3685C85.6171 17.1968 85.8647 16.9709 86.0577 16.6894C86.2507 16.4084 86.3913 16.0854 86.4789 15.7205C86.5666 15.3561 86.6107 14.9802 86.6107 14.5937C86.6107 14.2597 86.5627 13.9367 86.4657 13.6247C86.3692 13.3128 86.2221 13.0357 86.0247 12.7944C85.8273 12.5526 85.5792 12.3593 85.2809 12.2146C84.9826 12.0699 84.627 11.9971 84.2146 11.9971L84.2151 11.9962Z" fill="#666666"/>
<path d="M92.1267 18.2447C91.6178 18.2447 91.1371 18.1701 90.685 18.0206C90.233 17.871 89.8404 17.6513 89.5068 17.3614C89.1733 17.0715 88.908 16.711 88.7106 16.2804C88.5132 15.8498 88.4146 15.3574 88.4146 14.8041C88.4146 14.268 88.5044 13.7866 88.6846 13.3609C88.8644 12.9346 89.1169 12.5742 89.4416 12.2799C89.7664 11.9856 90.1545 11.7614 90.6066 11.6075C91.0587 11.4535 91.5522 11.3767 92.0875 11.3767C92.6841 11.3767 93.2067 11.4689 93.6539 11.6538C94.1016 11.8382 94.4748 12.0955 94.773 12.425C95.0713 12.7546 95.293 13.1522 95.4379 13.6181C95.5825 14.0836 95.6464 14.6024 95.6287 15.1738H89.5073C89.5161 15.578 89.5994 15.9252 89.7575 16.2151C89.9157 16.505 90.1197 16.7446 90.3696 16.9334C90.6198 17.1222 90.8983 17.2608 91.2054 17.3486C91.5125 17.4364 91.8201 17.4805 92.1272 17.4805C92.4871 17.4805 92.7965 17.443 93.0551 17.3684C93.3142 17.2939 93.5354 17.1946 93.72 17.0719C93.9042 16.9488 94.0579 16.8015 94.1809 16.6303C94.3038 16.4591 94.4047 16.2764 94.4836 16.0832H95.5499C95.4269 16.3731 95.2709 16.6497 95.0824 16.9135C94.8938 17.1769 94.6611 17.4077 94.3844 17.6054C94.1082 17.803 93.7856 17.9592 93.4168 18.0731C93.0485 18.1873 92.6185 18.2447 92.1267 18.2447ZM92.0871 12.1149C91.6482 12.1149 91.2688 12.1872 90.9485 12.3324C90.6282 12.4775 90.3607 12.6642 90.1457 12.8927C89.9307 13.1213 89.7708 13.3807 89.665 13.6706C89.5597 13.9605 89.5029 14.2504 89.4941 14.5407H94.5228C94.514 14.2857 94.4633 14.0156 94.3717 13.7302C94.2796 13.4443 94.1368 13.1808 93.9438 12.9391C93.7508 12.6973 93.5028 12.4996 93.2001 12.3456C92.8974 12.1916 92.5264 12.1149 92.0875 12.1149H92.0871Z" fill="#666666"/>
<path d="M99.0778 18.2448C98.5773 18.2448 98.1411 18.1896 97.7679 18.0802C97.3947 17.9703 97.0836 17.823 96.8333 17.6385C96.5831 17.4541 96.3967 17.2366 96.2738 16.986C96.1508 16.7358 96.0892 16.4697 96.0892 16.1887H96.958C96.958 16.584 97.1334 16.9026 97.4846 17.1444C97.8357 17.3861 98.3667 17.507 99.0774 17.507C99.3757 17.507 99.648 17.485 99.8934 17.4409C100.139 17.3972 100.35 17.3244 100.525 17.2233C100.701 17.1223 100.837 16.9882 100.933 16.8214C101.03 16.6546 101.078 16.4477 101.078 16.2019C101.078 15.9734 101.006 15.7978 100.861 15.6747C100.716 15.5516 100.527 15.4571 100.294 15.3914C100.062 15.3252 99.7965 15.2771 99.4982 15.2462C99.1999 15.2158 98.895 15.1827 98.5835 15.1474C98.272 15.1121 97.967 15.064 97.6683 15.0027C97.37 14.9414 97.1043 14.8443 96.8721 14.7128C96.6395 14.5809 96.4509 14.4075 96.3059 14.1922C96.1614 13.9769 96.0887 13.6936 96.0887 13.342C96.0887 12.9991 96.1632 12.7026 96.3126 12.452C96.4615 12.2014 96.6725 11.9927 96.9444 11.8259C97.2162 11.6591 97.5432 11.5338 97.9252 11.45C98.3072 11.3666 98.7262 11.3247 99.1823 11.3247C99.7088 11.3247 100.152 11.3772 100.512 11.4831C100.872 11.5886 101.161 11.7337 101.38 11.9181C101.6 12.1026 101.758 12.3179 101.855 12.5641C101.951 12.8098 102 13.0693 102 13.342H101.21C101.21 12.876 101.019 12.5464 100.637 12.3532C100.255 12.1599 99.77 12.0633 99.1823 12.0633C98.884 12.0633 98.6011 12.0832 98.3332 12.1224C98.0657 12.1621 97.8353 12.2323 97.6419 12.3333C97.4489 12.4344 97.2951 12.5663 97.181 12.7287C97.0669 12.891 97.0096 13.0953 97.0096 13.3415C97.0096 13.6402 97.1325 13.8533 97.3784 13.9808C97.6238 14.1083 97.9314 14.2006 98.2997 14.2575C98.6685 14.3148 99.0699 14.3607 99.5044 14.396C99.9388 14.4313 100.34 14.5037 100.709 14.6135C101.078 14.7234 101.385 14.8972 101.631 15.1342C101.877 15.3715 102 15.7228 102 16.1887C102 16.4962 101.942 16.7777 101.828 17.0323C101.714 17.2873 101.539 17.5048 101.302 17.6849C101.065 17.8649 100.762 18.0034 100.393 18.1C100.025 18.1967 99.5859 18.2448 99.077 18.2448H99.0778Z" fill="#666666"/>
</g>
<defs>
<clipPath id="clip0_32_6416">
<rect width="102" height="24" fill="white"/>
</clipPath>
</defs>
</svg>
